:FULLY-SPECIFIED
:FORCE-ALL-JOINTS-BE-3DOF
:DEGREES
404
root 9.75001 16.7939 20.632 7.61072 -1.00484 -7.9309
lfemur -44.0635 1.99098 -12.111
ltibia 29.6131 0 0
lfoot -8.36739 10.8044 0
ltoes -12.8094 0 0
rfemur 18.917 6.29498 33.3408
rtibia -0.189533 0 0
rfoot -6.64574 7.3585 0
rtoes -15.6489 0 0
lowerback -8.65906 3.35069 3.74193
upperback -0.639021 3.93759 3.63661
thorax 4.17132 1.98736 2.17215
lowerneck -19.295 -6.3881 -13.2759
upperneck 21.4371 -8.3171 13.2531
head 11.3031 -3.34472 5.8005
lclavicle 6.90347e-16 -3.12563e-14 0
lhumerus -55.2048 -9.81524 96.3526
lradius 27.0147 0 0
lwrist 7.55158 0 0
lhand -7.19053 -20.8969 0
lfingers 7.12502 0 0
lthumb 18.6863 8.20792 0
rclavicle 6.90347e-16 -3.12563e-14 0
rhumerus -29.9116 14.6067 -86.4356
rradius 38.9888 0 0
rwrist -17.4034 0 0
rhand -29.4506 -23.6413 0
rfingers 7.12502 0 0
rthumb -2.7868 -53.6023 0
405
root 9.76275 16.7859 20.7728 7.63136 -1.11968 -7.97322
lfemur -43.9728 1.91448 -12.0792
ltibia 28.6931 0 0
lfoot -8.18786 10.701 0
ltoes -13.0612 0 0
rfemur 19.3953 6.22842 33.3104
rtibia -0.473162 0 0
rfoot -6.30385 7.37757 0
rtoes -15.6278 0 0
lowerback -8.72015 3.3915 3.77613
upperback -0.640997 3.9862 3.64441
thorax 4.20568 2.01197 2.16806
lowerneck -19.2804 -6.37176 -13.2861
upperneck 21.447 -8.29277 13.2526
head 11.301 -3.33529 5.80672
lclavicle 7.23969e-16 -3.07128e-14 0
lhumerus -55.1767 -9.66737 96.2862
lradius 26.9628 0 0
lwrist 7.34263 0 0
lhand -7.02098 -20.8951 0
lfingers 7.12502 0 0
lthumb 18.8496 8.19714 0
rclavicle 7.23969e-16 -3.07128e-14 0
rhumerus -29.9521 14.4705 -86.4924
rradius 38.8004 0 0
rwrist -17.2294 0 0
rhand -29.4137 -23.6798 0
rfingers 7.12502 0 0
rthumb -2.75117 -53.6413 0
406
root 9.77549 16.7779 20.9136 7.6478 -1.22586 -8.00157
lfemur -43.8677 1.84507 -12.0689
ltibia 27.8378 0 0
lfoot -8.02777 10.5994 0
ltoes -13.2792 0 0
rfemur 19.8015 6.15651 33.2644
rtibia -0.661594 0 0
rfoot -5.98866 7.37711 0
rtoes -15.6123 0 0
lowerback -8.77314 3.42507 3.80107
upperback -0.643823 4.02626 3.64903
thorax 4.23451 2.03227 2.16479
lowerneck -19.269 -6.35391 -13.2938
upperneck 21.4598 -8.26604 13.2489
head 11.3001 -3.32486 5.81177
lclavicle 6.9521e-16 -3.01667e-14 0
lhumerus -55.1184 -9.52866 96.2157
lradius 26.905 0 0
lwrist 7.13322 0 0
lhand -6.86824 -20.8959 0
lfingers 7.12502 0 0
lthumb 18.9968 8.18504 0
rclavicle 6.9521e-16 -3.01667e-14 0
rhumerus -30.006 14.3402 -86.5481
rradius 38.6208 0 0
rwrist -17.0619 0 0
rhand -29.3807 -23.7255 0
rfingers 7.12502 0 0
rthumb -2.71934 -53.6875 0
407
root 9.78823 16.77 21.0544 7.65979 -1.32293 -8.01529
lfemur -43.749 1.7832 -12.0812
ltibia 27.0528 0 0
lfoot -7.88871 10.5004 0
ltoes -13.4609 0 0
rfemur 20.132 6.07914 33.2024
rtibia -0.749806 0 0
rfoot -5.70221 7.35613 0
rtoes -15.6028 0 0
lowerback -8.81749 3.4511 3.81634
upperback -0.647531 4.05741 3.65029
thorax 4.25745 2.04807 2.16236
lowerneck -19.2611 -6.33452 -13.2989
upperneck 21.4758 -8.23688 13.2418
head 11.3004 -3.31341 5.81557
lclavicle 5.99786e-16 -2.96192e-14 0
lhumerus -55.0288 -9.39931 96.1408
lradius 26.8408 0 0
lwrist 6.92363 0 0
lhand -6.73351 -20.8994 0
lfingers 7.12502 0 0
lthumb 19.1265 8.17164 0
rclavicle 5.99786e-16 -2.96192e-14 0
rhumerus -30.0735 14.2164 -86.6026
rradius 38.4508 0 0
rwrist -16.9019 0 0
rhand -29.352 -23.7786 0
rfingers 7.12502 0 0
rthumb -2.69162 -53.7411 0
408
root 9.80097 16.762 21.1952 7.66708 -1.41043 -8.01375
lfemur -43.6174 1.7293 -12.1172
ltibia 26.3438 0 0
lfoot -7.77226 10.4044 0
ltoes -13.604 0 0
rfemur 20.3831 5.99621 33.1239
rtibia -0.732775 0 0
rfoot -5.44656 7.3136 0
rtoes -15.5994 0 0
lowerback -8.85266 3.46926 3.82154
upperback -0.652151 4.07928 3.64804
thorax 4.27416 2.05919 2.16077
lowerneck -19.2568 -6.31355 -13.3012
upperneck 21.495 -8.20521 13.2311
head 11.302 -3.30092 5.81802
lclavicle 4.33414e-16 -2.90711e-14 0
lhumerus -54.9068 -9.27953 96.0613
lradius 26.7698 0 0
lwrist 6.71413 0 0
lhand -6.61802 -20.9057 0
lfingers 7.12502 0 0
lthumb 19.2378 8.15697 0
rclavicle 4.33414e-16 -2.90711e-14 0
rhumerus -30.1549 14.1 -86.6557
rradius 38.2914 0 0
rwrist -16.7498 0 0
rhand -29.3279 -23.8396 0
rfingers 7.12502 0 0
rthumb -2.66831 -53.8025 0
409
root 9.81371 16.754 21.336 7.66942 -1.4879 -7.9963
lfemur -43.4736 1.68381 -12.1782
ltibia 25.7164 0 0
lfoot -7.68 10.3121 0
ltoes -13.7061 0 0
rfemur 20.5513 5.90762 33.0284
rtibia -0.605479 0 0
rfoot -5.22374 7.24853 0
rtoes -15.6026 0 0
lowerback -8.87811 3.47924 3.81626
upperback -0.657713 4.09152 3.64211
thorax 4.28426 2.06545 2.16002
lowerneck -19.2564 -6.29097 -13.3006
upperneck 21.5177 -8.17099 13.2167
head 11.305 -3.28736 5.81906
lclavicle 1.91809e-16 -2.85233e-14 0
lhumerus -54.7514 -9.16951 95.9769
lradius 26.6914 0 0
lwrist 6.505 0 0
lhand -6.52297 -20.9148 0
lfingers 7.12502 0 0
lthumb 19.3293 8.14104 0
rclavicle 1.91809e-16 -2.85233e-14 0
rhumerus -30.2505 13.9915 -86.7074
rradius 38.1436 0 0
rwrist -16.6064 0 0
rhand -29.3086 -23.9088 0
rfingers 7.12502 0 0
rthumb -2.64968 -53.8719 0
